
<svg viewBox="0 0 300 200" xmlns="http://www.w3.org/2000/svg">
  <path d="M50,100 
           C50,50 150,50 150,100 
           C150,150 250,150 250,100 
           C250,50 150,50 150,100 
           C150,150 50,150 50,100" 
        style="stroke:#778899; stroke-width:16; fill:none; stroke-linecap:round"/>

  <!-- Left Circuit Path (light silver) -->
  <path d="M80,90 
           L100,75 
           L125,95 
           L150,100" 
        style="stroke:#cccccc; stroke-width:8; fill:none; stroke-linecap:round"/>

  <!-- Left Circuit Nodes -->
  <circle cx="80" cy="90" r="10" style="fill:#cccccc; stroke:#cccccc"/>
  <circle cx="100" cy="75" r="10" style="fill:#cccccc; stroke:#cccccc"/>
  <circle cx="125" cy="95" r="10" style="fill:#cccccc; stroke:#cccccc"/>

  <!-- Right Circuit Path (dark silver) -->
  <path d="M220,90 
           L200,125 
           L175,105 
           L150,100" 
        style="stroke:#666666; stroke-width:8; fill:none; stroke-linecap:round"/>

  <!-- Right Circuit Nodes -->
  <circle cx="220" cy="90" r="10" style="fill:#666666; stroke:#666666"/>
  <circle cx="200" cy="125" r="10" style="fill:#666666; stroke:#666666"/>
  <circle cx="175" cy="105" r="10" style="fill:#666666; stroke:#666666"/>

  <!-- Central Gold Node -->
  <circle cx="150" cy="100" r="12" style="fill:#d4af37; stroke:#d4af37; stroke-width:2"/>
</svg>
